HIERARCHY
ROOT hip
{
  OFFSET 0 0 0
  CHANNELS 6 Xposition Yposition Zposition Zrotation Yrotation Xrotation
  JOINT abdomen
  {
    OFFSET 0 20.6881 -0.73152
    CHANNELS 3 Zrotation Xrotation Yrotation
    JOINT chest
    {
      OFFSET 0 11.7043 -0.48768
      CHANNELS 3 Zrotation Xrotation Yrotation
      JOINT neck
      {
        OFFSET 0 22.1894 -2.19456
        CHANNELS 3 Zrotation Xrotation Yrotation
        JOINT head
        {
          OFFSET -0.24384 7.07133 1.2192
          CHANNELS 3 Zrotation Xrotation Yrotation
          JOINT leftEye
          {
            OFFSET 4.14528 8.04674 8.04672
            CHANNELS 3 Zrotation Xrotation Yrotation
            End Site
            {
              OFFSET 1 0 0
            }
          }
          JOINT rightEye
          {
            OFFSET -3.6576 8.04674 8.04672
            CHANNELS 3 Zrotation Xrotation Yrotation
            End Site
            {
              OFFSET 1 0 0
            }
          }
        }
      }
      JOINT rCollar
      {
        OFFSET -2.68224 19.2634 -4.8768
        CHANNELS 3 Zrotation Xrotation Yrotation
        JOINT rShldr
        {
          OFFSET -8.77824 -1.95073 1.46304
          CHANNELS 3 Zrotation Xrotation Yrotation
          JOINT rForeArm
          {
            OFFSET -28.1742 -1.7115 0.48768
            CHANNELS 3 Zrotation Xrotation Yrotation
            JOINT rHand
            {
              OFFSET -22.5879 0.773209 7.07136
              CHANNELS 3 Zrotation Xrotation Yrotation
              JOINT rThumb1
              {
                OFFSET -1.2192 -0.487915 3.41376
                CHANNELS 3 Zrotation Xrotation Yrotation
                JOINT rThumb2
                {
                  OFFSET -3.37035 -0.52449 3.41376
                  CHANNELS 3 Zrotation Xrotation Yrotation
                  End Site
                  {
                    OFFSET -1.78271 -1.18214 1.43049
                  }
                }
              }
              JOINT rIndex1
              {
                OFFSET -7.75947 0.938293 5.60832
                CHANNELS 3 Zrotation Xrotation Yrotation
                JOINT rIndex2
                {
                  OFFSET -2.54057 -0.884171 1.56538
                  CHANNELS 3 Zrotation Xrotation Yrotation
                  End Site
                  {
                    OFFSET -1.62519 -0.234802 1.16502
                  }
                }
              }
              JOINT rMid1
              {
                OFFSET -8.24714 1.18213 3.41376
                CHANNELS 3 Zrotation Xrotation Yrotation
                JOINT rMid2
                {
                  OFFSET -3.10165 -0.590103 1.0647
                  CHANNELS 3 Zrotation Xrotation Yrotation
                  End Site
                  {
                    OFFSET -2.48547 -0.328903 0.83742
                  }
                }
              }
              JOINT rRing1
              {
                OFFSET -8.82822 0.546677 1.51678
                CHANNELS 3 Zrotation Xrotation Yrotation
                JOINT rRing2
                {
                  OFFSET -2.60934 -0.819778 -0.0198488
                  CHANNELS 3 Zrotation Xrotation Yrotation
                  End Site
                  {
                    OFFSET -2.33842 -0.294052 0.168128
                  }
                }
              }
              JOINT rPinky1
              {
                OFFSET -8.27202 -0.0477905 -0.4584
                CHANNELS 3 Zrotation Xrotation Yrotation
                JOINT rPinky2
                {
                  OFFSET -1.82734 -0.647385 -0.700984
                  CHANNELS 3 Zrotation Xrotation Yrotation
                  End Site
                  {
                    OFFSET -1.69225 -0.51767 -0.607171
                  }
                }
              }
            }
          }
        }
      }
      JOINT lCollar
      {
        OFFSET 2.68224 19.2634 -4.8768
        CHANNELS 3 Zrotation Xrotation Yrotation
        JOINT lShldr
        {
          OFFSET 8.77824 -1.95073 1.46304
          CHANNELS 3 Zrotation Xrotation Yrotation
          JOINT lForeArm
          {
            OFFSET 28.1742 -1.7115 0.48768
            CHANNELS 3 Zrotation Xrotation Yrotation
            JOINT lHand
            {
              OFFSET 22.5879 0.773209 7.07136
              CHANNELS 3 Zrotation Xrotation Yrotation
              JOINT lThumb1
              {
                OFFSET 1.2192 -0.487915 3.41376
                CHANNELS 3 Zrotation Xrotation Yrotation
                JOINT lThumb2
                {
                  OFFSET 3.37035 -0.52449 3.41376
                  CHANNELS 3 Zrotation Xrotation Yrotation
                  End Site
                  {
                    OFFSET 1.78271 -1.18214 1.43049
                  }
                }
              }
              JOINT lIndex1
              {
                OFFSET 7.75947 0.938293 5.60832
                CHANNELS 3 Zrotation Xrotation Yrotation
                JOINT lIndex2
                {
                  OFFSET 2.54057 -0.884171 1.56538
                  CHANNELS 3 Zrotation Xrotation Yrotation
                  End Site
                  {
                    OFFSET 1.62519 -0.234802 1.16502
                  }
                }
              }
              JOINT lMid1
              {
                OFFSET 8.24714 1.18213 3.41376
                CHANNELS 3 Zrotation Xrotation Yrotation
                JOINT lMid2
                {
                  OFFSET 3.10165 -0.590103 1.0647
                  CHANNELS 3 Zrotation Xrotation Yrotation
                  End Site
                  {
                    OFFSET 2.48547 -0.328903 0.83742
                  }
                }
              }
              JOINT lRing1
              {
                OFFSET 8.82822 0.546677 1.51678
                CHANNELS 3 Zrotation Xrotation Yrotation
                JOINT lRing2
                {
                  OFFSET 2.60934 -0.819778 -0.0198488
                  CHANNELS 3 Zrotation Xrotation Yrotation
                  End Site
                  {
                    OFFSET 2.33842 -0.294052 0.168128
                  }
                }
              }
              JOINT lPinky1
              {
                OFFSET 8.27202 -0.0477905 -0.4584
                CHANNELS 3 Zrotation Xrotation Yrotation
                JOINT lPinky2
                {
                  OFFSET 1.82734 -0.647385 -0.700984
                  CHANNELS 3 Zrotation Xrotation Yrotation
                  End Site
                  {
                    OFFSET 1.69225 -0.51767 -0.607171
                  }
                }
              }
            }
          }
        }
      }
    }
  }
  JOINT rButtock
  {
    OFFSET -8.77824 4.35084 1.2192
    CHANNELS 3 Zrotation Xrotation Yrotation
    JOINT rThigh
    {
      OFFSET 0 -1.70687 -2.19456
      CHANNELS 3 Zrotation Xrotation Yrotation
      JOINT rShin
      {
        OFFSET 0 -36.8199 0.73152
        CHANNELS 3 Zrotation Xrotation Yrotation
        JOINT rFoot
        {
          OFFSET 0.73152 -45.1104 -5.12064
          CHANNELS 3 Zrotation Xrotation Yrotation
          End Site
          {
            OFFSET -1.1221 -3.69964 12.103
          }
        }
      }
    }
  }
  JOINT lButtock
  {
    OFFSET 8.77824 4.35084 1.2192
    CHANNELS 3 Zrotation Xrotation Yrotation
    JOINT lThigh
    {
      OFFSET 0 -1.70687 -2.19456
      CHANNELS 3 Zrotation Xrotation Yrotation
      JOINT lShin
      {
        OFFSET 0 -36.8199 0.73152
        CHANNELS 3 Zrotation Xrotation Yrotation
        JOINT lFoot
        {
          OFFSET -0.73152 -45.1104 -5.12064
          CHANNELS 3 Zrotation Xrotation Yrotation
          End Site
          {
            OFFSET 1.1221 -3.69964 12.103
          }
        }
      }
    }
  }
}
MOTION
Frames:	4
Frame Time:	0.00833333
-213.225 81.3562 21.7013 0.0 0.0 0.0 -3.13122 0.00208551 -0.0845036 -0.863234 0.0181967 -0.149332 -3.39725e-14 0.0 1.2424e-15 -1.0115e-13 3.18055e-15 3.8235e-15 -0.0 0.0 0.0 -0.0 0.0 0.0 -1.68491e-14 -3.82428e-17 7.45443e-16 -3.50786e-13 -2.17421e-16 1.39149e-14 -6.07387e-12 1.79721e-12 3.14875e-13 -6.96638e-11 -1.93239e-12 2.66849e-12 -1.64303e-10 -3.00789e-13 6.49469e-12 -2.83749e-10 -5.21611e-13 1.1213e-11 -1.64295e-10 -2.95394e-13 6.47561e-12 7.73091 5.47488 0.417314 -1.64302e-10 -3.00065e-13 6.49469e-12 2.90554 0.965183 0.102902 -1.64295e-10 -3.00562e-13 6.49549e-12 10.2786 0.731801 0.0259123 -1.64306e-10 -3.0096e-13 6.50105e-12 2.22167 -0.733487 -0.20892 -1.69454e-14 -3.64956e-17 3.97569e-16 -3.55911e-13 -5.40446e-16 1.23246e-14 -6.10324e-12 -1.83279e-12 3.30778e-13 -6.96589e-11 1.68453e-12 2.67167e-12 -1.64346e-10 -3.27725e-13 6.50741e-12 -2.83807e-10 -5.66139e-13 1.12456e-11 -1.64352e-10 -3.26007e-13 6.51696e-12 -7.73091 5.47488 -0.417314 -1.64345e-10 -3.26703e-13 6.50741e-12 -2.90554 0.965183 -0.102902 -1.64353e-10 -3.272e-13 6.50662e-12 -10.2786 0.731801 -0.0259123 -1.64344e-10 -3.27597e-13 6.50105e-12 -2.22167 -0.733487 0.20892 -2.03217e-16 0.0 -3.88251e-19 -1.91847 -1.93503 0.0146192 -0.00850299 -2.07867 -0.069782 -0.459 4.0001 0.132508 2.03217e-16 0.0 3.88251e-19 -2.8379 -9.3263 0.32233 -0.00902699 11.308 -0.235099 0.527004 -1.99513 -0.0183269
-207.13 79.2512 17.8964 7.011 65.978 8.9628 -7.62497 4.6888 -0.984672 0.335448 0.145139 -0.598732 -5.69081 5.47296 -3.57503 15.8416 -14.3228 -0.471328 -0.0 0.0 0.0 -0.0 0.0 0.0 2.13337e-14 -9.84516e-14 -5.3713e-14 13.1725 17.7916 1.7481 1.02392 16.1541 -40.9582 0.146962 -8.53393 -1.15214 9.76606e-11 5.50723e-11 1.81571e-10 1.65391e-10 9.61926e-11 3.19271e-10 9.7667e-11 5.50787e-11 1.81558e-10 7.73091 5.47488 0.417314 9.76608e-11 5.50755e-11 1.81573e-10 2.90554 0.965183 0.102902 9.76701e-11 5.50756e-11 1.81573e-10 10.2786 0.731801 0.0259123 9.7657e-11 5.50741e-11 1.81579e-10 2.22167 -0.733487 -0.20892 2.12636e-14 -9.84628e-14 -5.39906e-14 -18.2474 20.6989 -5.73246 29.3579 -26.4504 -12.6315 -0.0643525 -5.63293 0.77791 4.56835e-11 -3.53393e-10 -7.13874e-11 8.12625e-11 -6.22836e-10 -1.20847e-10 4.56795e-11 -3.53392e-10 -7.13779e-11 -7.73091 5.47488 -0.417314 4.56844e-11 -3.53392e-10 -7.13856e-11 -2.90554 0.965183 -0.102902 4.56778e-11 -3.53392e-10 -7.1387e-11 -10.2786 0.731801 -0.0259123 4.56852e-11 -3.53392e-10 -7.13928e-11 -2.22167 -0.733487 0.20892 -2.03217e-16 0.0 -3.88251e-19 -7.42829 -11.9051 -3.73428 0.0191217 14.1068 0.154895 -0.734681 0.573771 -0.886801 2.03217e-16 0.0 3.88251e-19 0.995424 -7.4313 7.04776 -0.113098 18.2864 -0.513724 1.2006 -7.48281 3.26767
-206.63 79.3182 18.3789 7.0691 65.5227 8.6172 -12.2124 9.64942 -1.88506 1.63547 0.278794 -1.0541 -11.0035 11.2956 -7.49632 32.4781 -29.6048 -1.04172 -0.0 0.0 0.0 -0.0 0.0 0.0 6.69148e-14 -2.14818e-13 -1.15736e-13 25.8295 36.7811 4.03504 16.9444 6.61262 -82.8932 -0.0871016 -17.4885 -2.45075 3.81234e-10 1.15138e-10 3.93567e-10 6.51145e-10 2.01145e-10 6.91352e-10 3.81238e-10 1.15145e-10 3.9356e-10 7.73091 5.47488 0.417314 3.81233e-10 1.15144e-10 3.93571e-10 2.90554 0.965183 0.102902 3.81245e-10 1.15144e-10 3.93569e-10 10.2786 0.731801 0.0259123 3.8123e-10 1.15142e-10 3.93575e-10 2.22167 -0.733487 -0.20892 6.68719e-14 -2.14843e-13 -1.15938e-13 -31.9526 41.9086 -14.4918 42.2522 -49.3387 -37.1906 0.0371499 -11.5953 1.62721 2.38842e-10 -6.67496e-10 -1.82955e-10 4.17832e-10 -1.17932e-09 -3.11581e-10 2.3884e-10 -6.67495e-10 -1.82945e-10 -7.73091 5.47488 -0.417314 2.38843e-10 -6.67494e-10 -1.82951e-10 -2.90554 0.965183 -0.102902 2.38838e-10 -6.67494e-10 -1.82953e-10 -10.2786 0.731801 -0.0259123 2.38843e-10 -6.67494e-10 -1.82959e-10 -2.22167 -0.733487 0.20892 -2.03217e-16 0.0 -3.88251e-19 -14.7312 -22.3047 -8.17594 -0.109169 31.2877 0.448813 -1.15315 -3.09329 -1.93455 2.03217e-16 0.0 3.88251e-19 4.58067 -5.43916 14.1323 -0.140428 25.7077 -0.842454 2.61812 -13.2145 6.88771
-205.938 79.3678 18.9593 6.5628 64.5134 7.6197 -16.159 14.0475 -2.86074 2.73879 0.39891 -1.49756 -14.9656 16.1581 -11.1207 46.5986 -42.9545 -1.87205 -0.0 0.0 0.0 -0.0 0.0 0.0 9.76992e-14 -2.95278e-13 -1.6263e-13 34.4363 53.1064 8.33662 22.514 -23.9087 -103.081 -0.682919 -25.5581 -3.78941 6.21587e-10 1.65819e-10 5.31724e-10 1.06367e-09 2.89621e-10 9.35387e-10 6.2159e-10 1.65827e-10 5.31723e-10 7.73091 5.47488 0.417314 6.21587e-10 1.65827e-10 5.31731e-10 2.90554 0.965183 0.102902 6.21601e-10 1.65828e-10 5.31727e-10 10.2786 0.731801 0.0259123 6.21583e-10 1.65824e-10 5.31734e-10 2.22167 -0.733487 -0.20892 9.76817e-14 -2.95315e-13 -1.62767e-13 -32.9356 58.3616 -31.8806 30.9654 -55.1005 -76.9421 0.283265 -16.886 2.42717 4.65742e-10 -1.05952e-09 -2.27177e-10 8.11402e-10 -1.86738e-09 -3.85034e-10 4.65742e-10 -1.05952e-09 -2.27168e-10 -7.73091 5.47488 -0.417314 4.65744e-10 -1.05952e-09 -2.27172e-10 -2.90554 0.965183 -0.102902 4.6574e-10 -1.05952e-09 -2.27174e-10 -10.2786 0.731801 -0.0259123 4.65743e-10 -1.05952e-09 -2.2718e-10 -2.22167 -0.733487 0.20892 -2.03217e-16 0.0 -3.88251e-19 -22.9054 -31.2668 -12.888 -0.438799 46.4746 0.856944 -1.65281 -6.2705 -2.94226 2.03217e-16 0.0 3.88251e-19 7.3432 -3.57127 20.37 -0.0804162 32.2395 -1.18499 4.51255 -18.2174 10.2763
